HIERARCHY
ROOT joint_Root
{
  OFFSET 0 0 0
  CHANNELS 6 Xposition Yposition Zposition Zrotation Xrotation Yrotation
  JOINT Hips
  {
    OFFSET 0.847027 93.984 -452.225
    CHANNELS 6 Xposition Yposition Zposition Zrotation Xrotation Yrotation
    JOINT Spine
    {
      OFFSET 15.7357 0 0
      CHANNELS 6 Xposition Yposition Zposition Zrotation Xrotation Yrotation
      JOINT Chest
      {
        OFFSET 8.98455 -0.406207 0
        CHANNELS 6 Xposition Yposition Zposition Zrotation Xrotation Yrotation
        JOINT Neck
        {
          OFFSET 16.3773 0 0
          CHANNELS 6 Xposition Yposition Zposition Zrotation Xrotation Yrotation
          JOINT Head
          {
            OFFSET 6.45672 0 0
            CHANNELS 6 Xposition Yposition Zposition Zrotation Xrotation Yrotation
            End Site
            {
              OFFSET 0 0 0
            }
          }
        }
        JOINT Shoulder_L
        {
          OFFSET 12.9942 -0.242716 4.98039
          CHANNELS 6 Xposition Yposition Zposition Zrotation Xrotation Yrotation
          JOINT UpperArm_L
          {
            OFFSET 5.34809 0 0
            CHANNELS 6 Xposition Yposition Zposition Zrotation Xrotation Yrotation
            JOINT LowerArm_L
            {
              OFFSET 24.3286 1.87007e-05 0
              CHANNELS 6 Xposition Yposition Zposition Zrotation Xrotation Yrotation
              JOINT Hand_L
              {
                OFFSET 22.2916 0 0
                CHANNELS 6 Xposition Yposition Zposition Zrotation Xrotation Yrotation
                End Site
                {
                  OFFSET 0 0 0
                }
              }
            }
          }
        }
        JOINT Shoulder_R
        {
          OFFSET 12.9945 -0.242716 -4.98039
          CHANNELS 6 Xposition Yposition Zposition Zrotation Xrotation Yrotation
          JOINT UpperArm_R
          {
            OFFSET -5.34813 0 0
            CHANNELS 6 Xposition Yposition Zposition Zrotation Xrotation Yrotation
            JOINT LowerArm_R
            {
              OFFSET -24.3289 0.000322201 0
              CHANNELS 6 Xposition Yposition Zposition Zrotation Xrotation Yrotation
              JOINT Hand_R
              {
                OFFSET -22.2915 -0.000108084 0
                CHANNELS 6 Xposition Yposition Zposition Zrotation Xrotation Yrotation
                End Site
                {
                  OFFSET 0 0 0
                }
              }
            }
          }
        }
      }
    }
    JOINT UpperLeg_L
    {
      OFFSET -2.19248 -6.46944 0
      CHANNELS 6 Xposition Yposition Zposition Zrotation Xrotation Yrotation
      JOINT LowerLeg_L
      {
        OFFSET 39.0811 0 -1.23785e-05
        CHANNELS 6 Xposition Yposition Zposition Zrotation Xrotation Yrotation
        JOINT Foot_L
        {
          OFFSET 40.9854 0 -1.26872e-05
          CHANNELS 6 Xposition Yposition Zposition Zrotation Xrotation Yrotation
          JOINT Toes_L
          {
            OFFSET 11.7543 0 0
            CHANNELS 6 Xposition Yposition Zposition Zrotation Xrotation Yrotation
            End Site
            {
              OFFSET 0 0 0
            }
          }
        }
      }
    }
    JOINT UpperLeg_R
    {
      OFFSET -2.19251 6.46944 0
      CHANNELS 6 Xposition Yposition Zposition Zrotation Xrotation Yrotation
      JOINT LowerLeg_R
      {
        OFFSET -39.0811 -0.00228153 -0.0401928
        CHANNELS 6 Xposition Yposition Zposition Zrotation Xrotation Yrotation
        JOINT Foot_R
        {
          OFFSET -40.9854 0 0
          CHANNELS 6 Xposition Yposition Zposition Zrotation Xrotation Yrotation
          JOINT Toes_R
          {
            OFFSET -11.7543 0 0
            CHANNELS 6 Xposition Yposition Zposition Zrotation Xrotation Yrotation
            End Site
            {
              OFFSET 0 0 0
            }
          }
        }
      }
    }
  }
}
MOTION
Frames:	4
Frame Time:	0.0333333
0 0 0 0 0 -0 -7.96616 91.7174 -44.1642 91.0698 0.250867 6.49442 15.7357 5.1072e-06 -5.51765e-07 96.6812 77.2625 -94.7911 8.98455 -0.406207 -4.3199e-07 17.5048 3.07202 3.31429 16.3773 -1.3905e-06 -6.99897e-07 7.24004 -0.587888 5.83619 6.45672 -1.25837e-06 -1.02172e-07 -3.3709 0.544999 5.52927 12.9942 -0.242716 4.98039 -91.1756 6.63117 -94.924 5.34809 -7.22636e-06 -6.2814e-07 -70.0946 22.0949 -3.92539 24.3286 1.87007e-05 4.90208e-06 -0.139253 -0.41364 -18.604 22.2916 -9.88446e-07 4.63217e-06 13.4556 5.54622 -8.52957 12.9945 -0.242716 -4.98039 89.1898 8.3193 -99.4176 -5.34813 -1.25947e-06 -3.79883e-06 -51.996 7.38891 -18.4218 -24.3289 0.000322201 -8.65921e-06 2.61466 4.81511 -28.5575 -22.2915 -0.000108084 -4.47941e-06 13.5562 5.33481 -0.926375 -2.19248 -6.46944 -1.22534e-07 -176.942 -6.47407 -21.7937 39.0811 -6.73843e-06 -1.23785e-05 0.0948224 -0.0693566 54.0743 40.9854 -6.48686e-06 -1.26872e-05 -0.719129 3.10125 -55.01 11.7543 -2.30145e-07 3.05095e-06 0.165427 -0.280376 -21.4701 -2.19251 6.46944 -1.45247e-06 174.468 15.8721 -176.568 -39.0811 -0.00228153 -0.0401928 -0.0209769 0.090267 22.9603 -40.9854 7.72618e-06 5.99936e-06 -1.02605 2.03826 -69.3544 -11.7543 -5.6619e-06 -5.58687e-06 0.0235392 -0.0262979 -16.8334 
0 0 0 0 0 -0 -7.79846 91.7241 -41.6996 91.5371 -0.0680076 5.22 15.7357 5.1072e-06 -5.51765e-07 97.2325 77.4648 -95.6858 8.98455 -0.406207 -4.3199e-07 17.0818 3.22884 2.6139 16.3773 -1.3905e-06 -6.99897e-07 6.78295 -0.477354 5.89594 6.45672 -1.25837e-06 -1.02172e-07 -3.01423 0.630288 5.25784 12.9942 -0.242716 4.98039 -91.2663 7.07389 -94.8246 5.34809 -7.22636e-06 -6.2814e-07 -70.3294 20.1258 -2.07645 24.3286 1.87007e-05 4.90208e-06 -0.0535805 -0.180176 -16.5612 22.2916 -9.88446e-07 4.63217e-06 13.7775 5.54387 -8.42035 12.9945 -0.242716 -4.98039 89.2393 8.3325 -99.7651 -5.34813 -1.25947e-06 -3.79883e-06 -49.7584 8.28932 -20.1501 -24.3289 0.000322201 -8.65921e-06 2.69696 4.58158 -30.5398 -22.2915 -0.000108084 -4.47941e-06 13.5394 5.34354 -1.1839 -2.19248 -6.46944 -1.22534e-07 -177.486 -6.35026 -22.4387 39.0811 -6.73843e-06 -1.23785e-05 0.0609745 -0.0701363 42.2806 40.9854 -6.48686e-06 -1.26872e-05 -1.78399 3.1447 -55.0378 11.7543 -2.30145e-07 3.05095e-06 0.157686 -0.265945 -21.2241 -2.19251 6.46944 -1.45247e-06 173.532 16.3328 -174.807 -39.0811 -0.00228153 -0.0401928 -0.0286334 0.117646 20.5083 -40.9854 7.72618e-06 5.99936e-06 -1.46734 2.99784 -69.7574 -11.7543 -5.6619e-06 -5.58687e-06 0.0264969 -0.0296127 -16.866 
0 0 0 0 0 -0 -7.59993 91.3993 -39.1352 91.6146 -0.465293 4.11603 15.7357 5.1072e-06 -5.51765e-07 97.5481 77.5994 -96.2124 8.98455 -0.406207 -4.3199e-07 16.8023 3.31008 2.18693 16.3773 -1.3905e-06 -6.99897e-07 6.48097 -0.380982 5.95748 6.45672 -1.25837e-06 -1.02172e-07 -1.68973 0.771675 5.20233 12.9942 -0.242716 4.98039 -91.3536 7.5441 -94.7976 5.34809 -7.22636e-06 -6.2814e-07 -70.3731 17.8889 -0.939155 24.3286 1.87007e-05 4.90208e-06 0.0163309 0.0653743 -14.0769 22.2916 -9.88446e-07 4.63217e-06 13.8813 5.53798 -8.15131 12.9945 -0.242716 -4.98039 89.2893 8.52993 -100.219 -5.34813 -1.25947e-06 -3.79883e-06 -47.3509 8.94385 -21.8707 -24.3289 0.000322201 -8.65921e-06 2.7425 4.40353 -31.9692 -22.2915 -0.000108084 -4.47941e-06 13.7911 5.3525 -1.45207 -2.19248 -6.46944 -1.22534e-07 -177.272 -5.46617 -21.6217 39.0811 -6.73843e-06 -1.23785e-05 0.0269887 -0.0556103 28.4244 40.9854 -6.48686e-06 -1.26872e-05 -1.90513 3.20794 -55.5408 11.7543 -2.30145e-07 3.05095e-06 0.155481 -0.261871 -21.1546 -2.19251 6.46944 -1.45247e-06 172.861 16.7278 -173.439 -39.0811 -0.00228153 -0.0401928 -0.0418959 0.160195 19.3717 -40.9854 7.72618e-06 5.99936e-06 -1.93607 3.99666 -70.8824 -11.7543 -5.6619e-06 -5.58687e-06 0.0436207 -0.0489063 -17.0558 
0 0 0 0 0 -0 -7.31214 90.7587 -36.337 91.4127 -1.18737 3.26595 15.7357 5.1072e-06 -5.51765e-07 97.8426 77.6513 -96.6372 8.98455 -0.406207 -4.3199e-07 16.686 3.40969 1.91453 16.3773 -1.3905e-06 -6.99897e-07 6.71977 -0.200021 6.05872 6.45672 -1.25837e-06 -1.02172e-07 0.175055 1.05547 5.17893 12.9942 -0.242716 4.98039 -91.4361 7.92083 -94.6894 5.34809 -7.22636e-06 -6.2814e-07 -70.3477 16.0212 -0.458622 24.3286 1.87007e-05 4.90208e-06 0.13019 0.648099 -11.3671 22.2916 -9.88446e-07 4.63217e-06 13.8864 5.52985 -7.78902 12.9945 -0.242716 -4.98039 89.3263 8.63239 -100.52 -5.34813 -1.25947e-06 -3.79883e-06 -45.31 9.50925 -23.874 -24.3289 0.000322201 -8.65921e-06 2.69953 4.26536 -32.3874 -22.2915 -0.000108084 -4.47941e-06 14.0122 5.36005 -1.68072 -2.19248 -6.46944 -1.22534e-07 -176.291 -3.41454 -19.5825 39.0811 -6.73843e-06 -1.23785e-05 0.00491976 -0.0293963 13.7087 40.9854 -6.48686e-06 -1.26872e-05 -1.20452 2.55342 -55.6323 11.7543 -2.30145e-07 3.05095e-06 0.154948 -0.260896 -21.1379 -2.19251 6.46944 -1.45247e-06 172.286 16.7327 -172.251 -39.0811 -0.00228153 -0.0401928 -0.0593328 0.212884 19.4071 -40.9854 7.72618e-06 5.99936e-06 -2.48629 4.96245 -72.729 -11.7543 -5.6619e-06 -5.58687e-06 0.0601497 -0.0676612 -17.2397 
